<svg height="6254" width="720" xmlns="http://www.w3.org/2000/svg">
<rect height="6254" fill="#555" width="720"></rect>
<text fill="#7f7" font-family="Courier New" font-size="12" xml:space="preserve">
<tspan x="10" y="26">46 megabytes installed</tspan>
<tspan x="10" y="42"></tspan>
<tspan x="10" y="58">node_modules</tspan>
<tspan x="10" y="74">├─┬ generator-mobile@2.0.0-alpha </tspan>
<tspan x="10" y="90">│ ├─┬ chalk@0.5.1 </tspan>
<tspan x="10" y="106">│ │ ├── ansi-styles@1.1.0 </tspan>
<tspan x="10" y="122">│ │ ├── escape-string-regexp@1.0.5 </tspan>
<tspan x="10" y="138">│ │ ├── has-ansi@0.1.0 </tspan>
<tspan x="10" y="154">│ │ ├── strip-ansi@0.3.0 </tspan>
<tspan x="10" y="170">│ │ └── supports-color@0.2.0 </tspan>
<tspan x="10" y="186">│ ├─┬ download@3.3.0 </tspan>
<tspan x="10" y="202">│ │ ├─┬ concat-stream@1.6.0 </tspan>
<tspan x="10" y="218">│ │ │ ├── inherits@2.0.3 </tspan>
<tspan x="10" y="234">│ │ │ ├─┬ readable-stream@2.2.9 </tspan>
<tspan x="10" y="250">│ │ │ │ ├── buffer-shims@1.0.0 </tspan>
<tspan x="10" y="266">│ │ │ │ ├── core-util-is@1.0.2 </tspan>
<tspan x="10" y="282">│ │ │ │ ├── isarray@1.0.0 </tspan>
<tspan x="10" y="298">│ │ │ │ ├── process-nextick-args@1.0.7 </tspan>
<tspan x="10" y="314">│ │ │ │ ├── string_decoder@1.0.0 </tspan>
<tspan x="10" y="330">│ │ │ │ └── util-deprecate@1.0.2 </tspan>
<tspan x="10" y="346">│ │ │ └── typedarray@0.0.6 </tspan>
<tspan x="10" y="362">│ │ ├─┬ decompress-tar@2.0.2 </tspan>
<tspan x="10" y="378">│ │ │ ├── is-tar@1.0.0 </tspan>
<tspan x="10" y="394">│ │ │ ├─┬ strip-dirs@0.1.1 </tspan>
<tspan x="10" y="410">│ │ │ │ ├─┬ is-absolute@0.1.7 </tspan>
<tspan x="10" y="426">│ │ │ │ │ └── is-relative@0.1.3 </tspan>
<tspan x="10" y="442">│ │ │ │ └─┬ is-integer@1.0.6 </tspan>
<tspan x="10" y="458">│ │ │ │   └─┬ is-finite@1.0.2 </tspan>
<tspan x="10" y="474">│ │ │ │     └── number-is-nan@1.0.1 </tspan>
<tspan x="10" y="490">│ │ │ └─┬ tar-stream@0.4.7 </tspan>
<tspan x="10" y="506">│ │ │   ├─┬ bl@0.9.5 </tspan>
<tspan x="10" y="522">│ │ │   │ └─┬ readable-stream@1.0.34 </tspan>
<tspan x="10" y="538">│ │ │   │   ├── isarray@0.0.1 </tspan>
<tspan x="10" y="554">│ │ │   │   └── string_decoder@0.10.31 </tspan>
<tspan x="10" y="570">│ │ │   ├── end-of-stream@1.4.0 </tspan>
<tspan x="10" y="586">│ │ │   └─┬ readable-stream@1.1.14 </tspan>
<tspan x="10" y="602">│ │ │     ├── isarray@0.0.1 </tspan>
<tspan x="10" y="618">│ │ │     └── string_decoder@0.10.31 </tspan>
<tspan x="10" y="634">│ │ ├─┬ decompress-tarbz2@2.0.2 </tspan>
<tspan x="10" y="650">│ │ │ ├── is-bzip2@1.0.0 </tspan>
<tspan x="10" y="666">│ │ │ └─┬ seek-bzip@1.0.5 </tspan>
<tspan x="10" y="682">│ │ │   └─┬ commander@2.8.1 </tspan>
<tspan x="10" y="698">│ │ │     └── graceful-readlink@1.0.1 </tspan>
<tspan x="10" y="714">│ │ ├─┬ decompress-targz@2.1.0 </tspan>
<tspan x="10" y="730">│ │ │ ├── is-gzip@1.0.0 </tspan>
<tspan x="10" y="746">│ │ │ ├─┬ strip-dirs@1.1.1 </tspan>
<tspan x="10" y="762">│ │ │ │ ├─┬ chalk@1.1.3 </tspan>
<tspan x="10" y="778">│ │ │ │ │ ├── ansi-styles@2.2.1 </tspan>
<tspan x="10" y="794">│ │ │ │ │ ├─┬ has-ansi@2.0.0 </tspan>
<tspan x="10" y="810">│ │ │ │ │ │ └── ansi-regex@2.1.1 </tspan>
<tspan x="10" y="826">│ │ │ │ │ ├── strip-ansi@3.0.1 </tspan>
<tspan x="10" y="842">│ │ │ │ │ └── supports-color@2.0.0 </tspan>
<tspan x="10" y="858">│ │ │ │ ├── get-stdin@4.0.1 </tspan>
<tspan x="10" y="874">│ │ │ │ ├── is-natural-number@2.1.1 </tspan>
<tspan x="10" y="890">│ │ │ │ └─┬ sum-up@1.0.3 </tspan>
<tspan x="10" y="906">│ │ │ │   └─┬ chalk@1.1.3 </tspan>
<tspan x="10" y="922">│ │ │ │     ├── ansi-styles@2.2.1 </tspan>
<tspan x="10" y="938">│ │ │ │     ├─┬ has-ansi@2.0.0 </tspan>
<tspan x="10" y="954">│ │ │ │     │ └── ansi-regex@2.1.1 </tspan>
<tspan x="10" y="970">│ │ │ │     ├── strip-ansi@3.0.1 </tspan>
<tspan x="10" y="986">│ │ │ │     └── supports-color@2.0.0 </tspan>
<tspan x="10" y="1002">│ │ │ └─┬ tar-stream@1.5.2 </tspan>
<tspan x="10" y="1018">│ │ │   └── bl@1.2.0 </tspan>
<tspan x="10" y="1034">│ │ ├─┬ decompress-unzip@2.1.2 </tspan>
<tspan x="10" y="1050">│ │ │ ├── is-zip@1.0.0 </tspan>
<tspan x="10" y="1066">│ │ │ ├─┬ strip-dirs@1.1.1 </tspan>
<tspan x="10" y="1082">│ │ │ │ ├─┬ chalk@1.1.3 </tspan>
<tspan x="10" y="1098">│ │ │ │ │ ├── ansi-styles@2.2.1 </tspan>
<tspan x="10" y="1114">│ │ │ │ │ ├─┬ has-ansi@2.0.0 </tspan>
<tspan x="10" y="1130">│ │ │ │ │ │ └── ansi-regex@2.1.1 </tspan>
<tspan x="10" y="1146">│ │ │ │ │ ├── strip-ansi@3.0.1 </tspan>
<tspan x="10" y="1162">│ │ │ │ │ └── supports-color@2.0.0 </tspan>
<tspan x="10" y="1178">│ │ │ │ └── get-stdin@4.0.1 </tspan>
<tspan x="10" y="1194">│ │ │ └─┬ yauzl@2.7.0 </tspan>
<tspan x="10" y="1210">│ │ │   ├── buffer-crc32@0.2.13 </tspan>
<tspan x="10" y="1226">│ │ │   └─┬ fd-slicer@1.0.1 </tspan>
<tspan x="10" y="1242">│ │ │     └── pend@1.2.0 </tspan>
<tspan x="10" y="1258">│ │ ├─┬ download-status@2.2.1 </tspan>
<tspan x="10" y="1274">│ │ │ ├─┬ lpad-align@1.1.0 </tspan>
<tspan x="10" y="1290">│ │ │ │ ├── get-stdin@4.0.1 </tspan>
<tspan x="10" y="1306">│ │ │ │ ├── longest@1.0.1 </tspan>
<tspan x="10" y="1322">│ │ │ │ ├── lpad@2.0.1 </tspan>
<tspan x="10" y="1338">│ │ │ │ └─┬ meow@3.7.0 </tspan>
<tspan x="10" y="1354">│ │ │ │   ├─┬ camelcase-keys@2.1.0 </tspan>
<tspan x="10" y="1370">│ │ │ │   │ └── camelcase@2.1.1 </tspan>
<tspan x="10" y="1386">│ │ │ │   ├── decamelize@1.2.0 </tspan>
<tspan x="10" y="1402">│ │ │ │   ├─┬ loud-rejection@1.6.0 </tspan>
<tspan x="10" y="1418">│ │ │ │   │ ├─┬ currently-unhandled@0.4.1 </tspan>
<tspan x="10" y="1434">│ │ │ │   │ │ └── array-find-index@1.0.2 </tspan>
<tspan x="10" y="1450">│ │ │ │   │ └── signal-exit@3.0.2 </tspan>
<tspan x="10" y="1466">│ │ │ │   ├─┬ normalize-package-data@2.3.8 </tspan>
<tspan x="10" y="1482">│ │ │ │   │ ├── hosted-git-info@2.4.2 </tspan>
<tspan x="10" y="1498">│ │ │ │   │ ├─┬ is-builtin-module@1.0.0 </tspan>
<tspan x="10" y="1514">│ │ │ │   │ │ └── builtin-modules@1.1.1 </tspan>
<tspan x="10" y="1530">│ │ │ │   │ ├── semver@5.3.0 </tspan>
<tspan x="10" y="1546">│ │ │ │   │ └─┬ validate-npm-package-license@3.0.1 </tspan>
<tspan x="10" y="1562">│ │ │ │   │   ├─┬ spdx-correct@1.0.2 </tspan>
<tspan x="10" y="1578">│ │ │ │   │   │ └── spdx-license-ids@1.2.2 </tspan>
<tspan x="10" y="1594">│ │ │ │   │   └── spdx-expression-parse@1.0.4 </tspan>
<tspan x="10" y="1610">│ │ │ │   ├── object-assign@4.1.1 </tspan>
<tspan x="10" y="1626">│ │ │ │   ├─┬ read-pkg-up@1.0.1 </tspan>
<tspan x="10" y="1642">│ │ │ │   │ ├─┬ find-up@1.1.2 </tspan>
<tspan x="10" y="1658">│ │ │ │   │ │ ├── path-exists@2.1.0 </tspan>
<tspan x="10" y="1674">│ │ │ │   │ │ └─┬ pinkie-promise@2.0.1 </tspan>
<tspan x="10" y="1690">│ │ │ │   │ │   └── pinkie@2.0.4 </tspan>
<tspan x="10" y="1706">│ │ │ │   │ └─┬ read-pkg@1.1.0 </tspan>
<tspan x="10" y="1722">│ │ │ │   │   ├─┬ load-json-file@1.1.0 </tspan>
<tspan x="10" y="1738">│ │ │ │   │   │ ├─┬ parse-json@2.2.0 </tspan>
<tspan x="10" y="1754">│ │ │ │   │   │ │ └─┬ error-ex@1.3.1 </tspan>
<tspan x="10" y="1770">│ │ │ │   │   │ │   └── is-arrayish@0.2.1 </tspan>
<tspan x="10" y="1786">│ │ │ │   │   │ ├── pify@2.3.0 </tspan>
<tspan x="10" y="1802">│ │ │ │   │   │ └── strip-bom@2.0.0 </tspan>
<tspan x="10" y="1818">│ │ │ │   │   └── path-type@1.1.0 </tspan>
<tspan x="10" y="1834">│ │ │ │   ├─┬ redent@1.0.0 </tspan>
<tspan x="10" y="1850">│ │ │ │   │ ├─┬ indent-string@2.1.0 </tspan>
<tspan x="10" y="1866">│ │ │ │   │ │ └── repeating@2.0.1 </tspan>
<tspan x="10" y="1882">│ │ │ │   │ └─┬ strip-indent@1.0.1 </tspan>
<tspan x="10" y="1898">│ │ │ │   │   └── get-stdin@4.0.1 </tspan>
<tspan x="10" y="1914">│ │ │ │   └── trim-newlines@1.0.0 </tspan>
<tspan x="10" y="1930">│ │ │ ├── object-assign@2.1.1 </tspan>
<tspan x="10" y="1946">│ │ │ └── progress@1.1.8 </tspan>
<tspan x="10" y="1962">│ │ ├─┬ each-async@1.1.1 </tspan>
<tspan x="10" y="1978">│ │ │ ├── onetime@1.1.0 </tspan>
<tspan x="10" y="1994">│ │ │ └── set-immediate-shim@1.0.1 </tspan>
<tspan x="10" y="2010">│ │ ├── get-stdin@3.0.2 </tspan>
<tspan x="10" y="2026">│ │ ├── gulp-rename@1.2.2 </tspan>
<tspan x="10" y="2042">│ │ ├─┬ meow@2.1.0 </tspan>
<tspan x="10" y="2058">│ │ │ ├─┬ camelcase-keys@1.0.0 </tspan>
<tspan x="10" y="2074">│ │ │ │ ├── camelcase@1.2.1 </tspan>
<tspan x="10" y="2090">│ │ │ │ └── map-obj@1.0.1 </tspan>
<tspan x="10" y="2106">│ │ │ ├─┬ indent-string@1.2.2 </tspan>
<tspan x="10" y="2122">│ │ │ │ ├── get-stdin@4.0.1 </tspan>
<tspan x="10" y="2138">│ │ │ │ └── repeating@1.1.3 </tspan>
<tspan x="10" y="2154">│ │ │ └── minimist@1.2.0 </tspan>
<tspan x="10" y="2170">│ │ ├─┬ rc@0.5.5 </tspan>
<tspan x="10" y="2186">│ │ │ ├── deep-extend@0.2.11 </tspan>
<tspan x="10" y="2202">│ │ │ ├── ini@1.3.4 </tspan>
<tspan x="10" y="2218">│ │ │ ├── minimist@0.0.10 </tspan>
<tspan x="10" y="2234">│ │ │ └── strip-json-comments@0.1.3 </tspan>
<tspan x="10" y="2250">│ │ ├─┬ stream-combiner@0.2.2 </tspan>
<tspan x="10" y="2266">│ │ │ ├── duplexer@0.1.1 </tspan>
<tspan x="10" y="2282">│ │ │ └── through@2.3.8 </tspan>
<tspan x="10" y="2298">│ │ ├─┬ through2@0.6.5 </tspan>
<tspan x="10" y="2314">│ │ │ ├─┬ readable-stream@1.0.34 </tspan>
<tspan x="10" y="2330">│ │ │ │ ├── isarray@0.0.1 </tspan>
<tspan x="10" y="2346">│ │ │ │ └── string_decoder@0.10.31 </tspan>
<tspan x="10" y="2362">│ │ │ └── xtend@4.0.1 </tspan>
<tspan x="10" y="2378">│ │ ├─┬ url-regex@2.1.3 </tspan>
<tspan x="10" y="2394">│ │ │ └── ip-regex@1.0.3 </tspan>
<tspan x="10" y="2410">│ │ ├─┬ vinyl@0.4.6 </tspan>
<tspan x="10" y="2426">│ │ │ ├── clone@0.2.0 </tspan>
<tspan x="10" y="2442">│ │ │ └── clone-stats@0.0.1 </tspan>
<tspan x="10" y="2458">│ │ ├─┬ vinyl-fs@0.3.14 </tspan>
<tspan x="10" y="2474">│ │ │ ├─┬ defaults@1.0.3 </tspan>
<tspan x="10" y="2490">│ │ │ │ └── clone@1.0.2 </tspan>
<tspan x="10" y="2506">│ │ │ ├─┬ glob-stream@3.1.18 </tspan>
<tspan x="10" y="2522">│ │ │ │ ├─┬ glob2base@0.0.12 </tspan>
<tspan x="10" y="2538">│ │ │ │ │ └── find-index@0.1.1 </tspan>
<tspan x="10" y="2554">│ │ │ │ ├── ordered-read-streams@0.1.0 </tspan>
<tspan x="10" y="2570">│ │ │ │ └── unique-stream@1.0.0 </tspan>
<tspan x="10" y="2586">│ │ │ ├─┬ glob-watcher@0.0.6 </tspan>
<tspan x="10" y="2602">│ │ │ │ └─┬ gaze@0.5.2 </tspan>
<tspan x="10" y="2618">│ │ │ │   └─┬ globule@0.1.0 </tspan>
<tspan x="10" y="2634">│ │ │ │     ├─┬ glob@3.1.21 </tspan>
<tspan x="10" y="2650">│ │ │ │     │ ├── graceful-fs@1.2.3 </tspan>
<tspan x="10" y="2666">│ │ │ │     │ └── inherits@1.0.2 </tspan>
<tspan x="10" y="2682">│ │ │ │     ├── lodash@1.0.2 </tspan>
<tspan x="10" y="2698">│ │ │ │     └── minimatch@0.2.14 </tspan>
<tspan x="10" y="2714">│ │ │ ├─┬ graceful-fs@3.0.11 </tspan>
<tspan x="10" y="2730">│ │ │ │ └── natives@1.1.0 </tspan>
<tspan x="10" y="2746">│ │ │ └─┬ strip-bom@1.0.0 </tspan>
<tspan x="10" y="2762">│ │ │   ├── first-chunk-stream@1.0.0 </tspan>
<tspan x="10" y="2778">│ │ │   └── is-utf8@0.2.1 </tspan>
<tspan x="10" y="2794">│ │ └─┬ ware@1.3.0 </tspan>
<tspan x="10" y="2810">│ │   └─┬ wrap-fn@0.1.5 </tspan>
<tspan x="10" y="2826">│ │     └── co@3.1.0 </tspan>
<tspan x="10" y="2842">│ ├── iniparser@1.0.5 </tspan>
<tspan x="10" y="2858">│ ├─┬ request@2.81.0 </tspan>
<tspan x="10" y="2874">│ │ ├── aws-sign2@0.6.0 </tspan>
<tspan x="10" y="2890">│ │ ├── aws4@1.6.0 </tspan>
<tspan x="10" y="2906">│ │ ├── caseless@0.12.0 </tspan>
<tspan x="10" y="2922">│ │ ├─┬ combined-stream@1.0.5 </tspan>
<tspan x="10" y="2938">│ │ │ └── delayed-stream@1.0.0 </tspan>
<tspan x="10" y="2954">│ │ ├── extend@3.0.0 </tspan>
<tspan x="10" y="2970">│ │ ├── forever-agent@0.6.1 </tspan>
<tspan x="10" y="2986">│ │ ├─┬ form-data@2.1.4 </tspan>
<tspan x="10" y="3002">│ │ │ └── asynckit@0.4.0 </tspan>
<tspan x="10" y="3018">│ │ ├─┬ har-validator@4.2.1 </tspan>
<tspan x="10" y="3034">│ │ │ ├─┬ ajv@4.11.7 </tspan>
<tspan x="10" y="3050">│ │ │ │ ├── co@4.6.0 </tspan>
<tspan x="10" y="3066">│ │ │ │ └─┬ json-stable-stringify@1.0.1 </tspan>
<tspan x="10" y="3082">│ │ │ │   └── jsonify@0.0.0 </tspan>
<tspan x="10" y="3098">│ │ │ └── har-schema@1.0.5 </tspan>
<tspan x="10" y="3114">│ │ ├─┬ hawk@3.1.3 </tspan>
<tspan x="10" y="3130">│ │ │ ├── boom@2.10.1 </tspan>
<tspan x="10" y="3146">│ │ │ ├── cryptiles@2.0.5 </tspan>
<tspan x="10" y="3162">│ │ │ ├── hoek@2.16.3 </tspan>
<tspan x="10" y="3178">│ │ │ └── sntp@1.0.9 </tspan>
<tspan x="10" y="3194">│ │ ├─┬ http-signature@1.1.1 </tspan>
<tspan x="10" y="3210">│ │ │ ├── assert-plus@0.2.0 </tspan>
<tspan x="10" y="3226">│ │ │ ├─┬ jsprim@1.4.0 </tspan>
<tspan x="10" y="3242">│ │ │ │ ├── assert-plus@1.0.0 </tspan>
<tspan x="10" y="3258">│ │ │ │ ├── extsprintf@1.0.2 </tspan>
<tspan x="10" y="3274">│ │ │ │ ├── json-schema@0.2.3 </tspan>
<tspan x="10" y="3290">│ │ │ │ └── verror@1.3.6 </tspan>
<tspan x="10" y="3306">│ │ │ └─┬ sshpk@1.13.0 </tspan>
<tspan x="10" y="3322">│ │ │   ├── asn1@0.2.3 </tspan>
<tspan x="10" y="3338">│ │ │   ├── assert-plus@1.0.0 </tspan>
<tspan x="10" y="3354">│ │ │   ├── bcrypt-pbkdf@1.0.1 </tspan>
<tspan x="10" y="3370">│ │ │   ├─┬ dashdash@1.14.1 </tspan>
<tspan x="10" y="3386">│ │ │   │ └── assert-plus@1.0.0 </tspan>
<tspan x="10" y="3402">│ │ │   ├── ecc-jsbn@0.1.1 </tspan>
<tspan x="10" y="3418">│ │ │   ├─┬ getpass@0.1.6 </tspan>
<tspan x="10" y="3434">│ │ │   │ └── assert-plus@1.0.0 </tspan>
<tspan x="10" y="3450">│ │ │   ├── jodid25519@1.0.2 </tspan>
<tspan x="10" y="3466">│ │ │   ├── jsbn@0.1.1 </tspan>
<tspan x="10" y="3482">│ │ │   └── tweetnacl@0.14.5 </tspan>
<tspan x="10" y="3498">│ │ ├── is-typedarray@1.0.0 </tspan>
<tspan x="10" y="3514">│ │ ├── isstream@0.1.2 </tspan>
<tspan x="10" y="3530">│ │ ├── json-stringify-safe@5.0.1 </tspan>
<tspan x="10" y="3546">│ │ ├─┬ mime-types@2.1.15 </tspan>
<tspan x="10" y="3562">│ │ │ └── mime-db@1.27.0 </tspan>
<tspan x="10" y="3578">│ │ ├── oauth-sign@0.8.2 </tspan>
<tspan x="10" y="3594">│ │ ├── performance-now@0.2.0 </tspan>
<tspan x="10" y="3610">│ │ ├── qs@6.4.0 </tspan>
<tspan x="10" y="3626">│ │ ├── safe-buffer@5.0.1 </tspan>
<tspan x="10" y="3642">│ │ ├── stringstream@0.0.5 </tspan>
<tspan x="10" y="3658">│ │ ├─┬ tough-cookie@2.3.2 </tspan>
<tspan x="10" y="3674">│ │ │ └── punycode@1.4.1 </tspan>
<tspan x="10" y="3690">│ │ ├── tunnel-agent@0.6.0 </tspan>
<tspan x="10" y="3706">│ │ └── uuid@3.0.1 </tspan>
<tspan x="10" y="3722">│ ├─┬ yeoman-generator@0.17.7 </tspan>
<tspan x="10" y="3738">│ │ ├── async@0.9.2 </tspan>
<tspan x="10" y="3754">│ │ ├─┬ cheerio@0.17.0 </tspan>
<tspan x="10" y="3770">│ │ │ ├─┬ CSSselect@0.4.1 </tspan>
<tspan x="10" y="3786">│ │ │ │ ├── CSSwhat@0.4.7 </tspan>
<tspan x="10" y="3802">│ │ │ │ └── domutils@1.4.3 </tspan>
<tspan x="10" y="3818">│ │ │ ├─┬ dom-serializer@0.0.1 </tspan>
<tspan x="10" y="3834">│ │ │ │ └── domelementtype@1.1.3 </tspan>
<tspan x="10" y="3850">│ │ │ ├── entities@1.1.1 </tspan>
<tspan x="10" y="3866">│ │ │ ├─┬ htmlparser2@3.7.3 </tspan>
<tspan x="10" y="3882">│ │ │ │ ├── domelementtype@1.3.0 </tspan>
<tspan x="10" y="3898">│ │ │ │ ├── domhandler@2.2.1 </tspan>
<tspan x="10" y="3914">│ │ │ │ ├── domutils@1.5.1 </tspan>
<tspan x="10" y="3930">│ │ │ │ ├── entities@1.0.0 </tspan>
<tspan x="10" y="3946">│ │ │ │ └─┬ readable-stream@1.1.14 </tspan>
<tspan x="10" y="3962">│ │ │ │   ├── isarray@0.0.1 </tspan>
<tspan x="10" y="3978">│ │ │ │   └── string_decoder@0.10.31 </tspan>
<tspan x="10" y="3994">│ │ │ └── lodash@2.4.2 </tspan>
<tspan x="10" y="4010">│ │ ├── class-extend@0.1.2 </tspan>
<tspan x="10" y="4026">│ │ ├─┬ cross-spawn@0.2.9 </tspan>
<tspan x="10" y="4042">│ │ │ └── lru-cache@2.7.3 </tspan>
<tspan x="10" y="4058">│ │ ├── dargs@2.1.0 </tspan>
<tspan x="10" y="4074">│ │ ├─┬ debug@1.0.4 </tspan>
<tspan x="10" y="4090">│ │ │ └── ms@0.6.2 </tspan>
<tspan x="10" y="4106">│ │ ├── diff@1.4.0 </tspan>
<tspan x="10" y="4122">│ │ ├─┬ download@1.0.7 </tspan>
<tspan x="10" y="4138">│ │ │ ├─┬ archive-type@1.0.4 </tspan>
<tspan x="10" y="4154">│ │ │ │ ├── is-7zip@1.0.0 </tspan>
<tspan x="10" y="4170">│ │ │ │ ├── is-rar@1.0.0 </tspan>
<tspan x="10" y="4186">│ │ │ │ └── read-chunk@1.0.1 </tspan>
<tspan x="10" y="4202">│ │ │ ├─┬ decompress@1.0.7 </tspan>
<tspan x="10" y="4218">│ │ │ │ ├─┬ decompress-tar@1.0.3 </tspan>
<tspan x="10" y="4234">│ │ │ │ │ ├── simple-bufferstream@0.0.4 </tspan>
<tspan x="10" y="4250">│ │ │ │ │ └─┬ tar@1.0.3 </tspan>
<tspan x="10" y="4266">│ │ │ │ │   ├── block-stream@0.0.9 </tspan>
<tspan x="10" y="4282">│ │ │ │ │   └── fstream@1.0.11 </tspan>
<tspan x="10" y="4298">│ │ │ │ ├── decompress-tarbz2@1.0.2 </tspan>
<tspan x="10" y="4314">│ │ │ │ ├── decompress-targz@1.0.3 </tspan>
<tspan x="10" y="4330">│ │ │ │ ├─┬ decompress-unzip@1.0.0 </tspan>
<tspan x="10" y="4346">│ │ │ │ │ ├── adm-zip@0.4.7 </tspan>
<tspan x="10" y="4362">│ │ │ │ │ ├── is-zip@0.1.0 </tspan>
<tspan x="10" y="4378">│ │ │ │ │ └─┬ temp-write@1.1.2 </tspan>
<tspan x="10" y="4394">│ │ │ │ │   ├── os-tmpdir@1.0.2 </tspan>
<tspan x="10" y="4410">│ │ │ │ │   └── uuid@2.0.3 </tspan>
<tspan x="10" y="4426">│ │ │ │ └── ware@0.3.0 </tspan>
<tspan x="10" y="4442">│ │ │ ├─┬ fs-extra@0.11.1 </tspan>
<tspan x="10" y="4458">│ │ │ │ ├─┬ jsonfile@2.4.0 </tspan>
<tspan x="10" y="4474">│ │ │ │ │ └── graceful-fs@4.1.11 </tspan>
<tspan x="10" y="4490">│ │ │ │ └── ncp@0.6.0 </tspan>
<tspan x="10" y="4506">│ │ │ ├── object-assign@1.0.0 </tspan>
<tspan x="10" y="4522">│ │ │ └── ware@0.3.0 </tspan>
<tspan x="10" y="4538">│ │ ├─┬ file-utils@0.2.2 </tspan>
<tspan x="10" y="4554">│ │ │ ├─┬ findup-sync@0.2.1 </tspan>
<tspan x="10" y="4570">│ │ │ │ └── glob@4.3.5 </tspan>
<tspan x="10" y="4586">│ │ │ ├── lodash@2.4.2 </tspan>
<tspan x="10" y="4602">│ │ │ └─┬ minimatch@2.0.10 </tspan>
<tspan x="10" y="4618">│ │ │   └─┬ brace-expansion@1.1.7 </tspan>
<tspan x="10" y="4634">│ │ │     ├── balanced-match@0.4.2 </tspan>
<tspan x="10" y="4650">│ │ │     └── concat-map@0.0.1 </tspan>
<tspan x="10" y="4666">│ │ ├─┬ findup-sync@0.1.3 </tspan>
<tspan x="10" y="4682">│ │ │ ├─┬ glob@3.2.11 </tspan>
<tspan x="10" y="4698">│ │ │ │ └─┬ minimatch@0.3.0 </tspan>
<tspan x="10" y="4714">│ │ │ │   └── sigmund@1.0.1 </tspan>
<tspan x="10" y="4730">│ │ │ └── lodash@2.4.2 </tspan>
<tspan x="10" y="4746">│ │ ├─┬ github-username@1.1.1 </tspan>
<tspan x="10" y="4762">│ │ │ ├── get-stdin@1.0.0 </tspan>
<tspan x="10" y="4778">│ │ │ └─┬ got@2.9.2 </tspan>
<tspan x="10" y="4794">│ │ │   ├─┬ duplexify@3.5.0 </tspan>
<tspan x="10" y="4810">│ │ │   │ ├─┬ end-of-stream@1.0.0 </tspan>
<tspan x="10" y="4826">│ │ │   │ │ └── once@1.3.3 </tspan>
<tspan x="10" y="4842">│ │ │   │ └── stream-shift@1.0.0 </tspan>
<tspan x="10" y="4858">│ │ │   ├── infinity-agent@2.0.3 </tspan>
<tspan x="10" y="4874">│ │ │   ├── is-stream@1.1.0 </tspan>
<tspan x="10" y="4890">│ │ │   ├── lowercase-keys@1.0.0 </tspan>
<tspan x="10" y="4906">│ │ │   ├── nested-error-stacks@1.0.2 </tspan>
<tspan x="10" y="4922">│ │ │   ├── prepend-http@1.0.4 </tspan>
<tspan x="10" y="4938">│ │ │   ├── read-all-stream@2.2.0 </tspan>
<tspan x="10" y="4954">│ │ │   ├── statuses@1.3.1 </tspan>
<tspan x="10" y="4970">│ │ │   └── timed-out@2.0.0 </tspan>
<tspan x="10" y="4986">│ │ ├─┬ glob@4.5.3 </tspan>
<tspan x="10" y="5002">│ │ │ ├─┬ inflight@1.0.6 </tspan>
<tspan x="10" y="5018">│ │ │ │ └── wrappy@1.0.2 </tspan>
<tspan x="10" y="5034">│ │ │ └── once@1.4.0 </tspan>
<tspan x="10" y="5050">│ │ ├─┬ grouped-queue@0.3.3 </tspan>
<tspan x="10" y="5066">│ │ │ └── lodash@4.17.4 </tspan>
<tspan x="10" y="5082">│ │ ├─┬ gruntfile-editor@0.2.0 </tspan>
<tspan x="10" y="5098">│ │ │ ├─┬ ast-query@0.2.5 </tspan>
<tspan x="10" y="5114">│ │ │ │ ├─┬ escodegen@1.3.3 </tspan>
<tspan x="10" y="5130">│ │ │ │ │ ├── estraverse@1.5.1 </tspan>
<tspan x="10" y="5146">│ │ │ │ │ ├── esutils@1.0.0 </tspan>
<tspan x="10" y="5162">│ │ │ │ │ └─┬ source-map@0.1.43 </tspan>
<tspan x="10" y="5178">│ │ │ │ │   └── amdefine@1.0.1 </tspan>
<tspan x="10" y="5194">│ │ │ │ ├── esprima@1.1.1 </tspan>
<tspan x="10" y="5210">│ │ │ │ ├── lodash@2.4.2 </tspan>
<tspan x="10" y="5226">│ │ │ │ └── traverse@0.6.6 </tspan>
<tspan x="10" y="5242">│ │ │ └── lodash@2.4.2 </tspan>
<tspan x="10" y="5258">│ │ ├── iconv-lite@0.4.15 </tspan>
<tspan x="10" y="5274">│ │ ├─┬ inquirer@0.7.3 </tspan>
<tspan x="10" y="5290">│ │ │ ├── ansi-regex@1.1.1 </tspan>
<tspan x="10" y="5306">│ │ │ ├─┬ cli-color@0.3.3 </tspan>
<tspan x="10" y="5322">│ │ │ │ ├── d@0.1.1 </tspan>
<tspan x="10" y="5338">│ │ │ │ ├─┬ es5-ext@0.10.15 </tspan>
<tspan x="10" y="5354">│ │ │ │ │ ├─┬ es6-iterator@2.0.1 </tspan>
<tspan x="10" y="5370">│ │ │ │ │ │ └── d@1.0.0 </tspan>
<tspan x="10" y="5386">│ │ │ │ │ └─┬ es6-symbol@3.1.1 </tspan>
<tspan x="10" y="5402">│ │ │ │ │   └── d@1.0.0 </tspan>
<tspan x="10" y="5418">│ │ │ │ ├─┬ memoizee@0.3.10 </tspan>
<tspan x="10" y="5434">│ │ │ │ │ ├─┬ es6-weak-map@0.1.4 </tspan>
<tspan x="10" y="5450">│ │ │ │ │ │ ├── es6-iterator@0.1.3 </tspan>
<tspan x="10" y="5466">│ │ │ │ │ │ └── es6-symbol@2.0.1 </tspan>
<tspan x="10" y="5482">│ │ │ │ │ ├─┬ event-emitter@0.3.5 </tspan>
<tspan x="10" y="5498">│ │ │ │ │ │ └── d@1.0.0 </tspan>
<tspan x="10" y="5514">│ │ │ │ │ ├── lru-queue@0.1.0 </tspan>
<tspan x="10" y="5530">│ │ │ │ │ └── next-tick@0.2.2 </tspan>
<tspan x="10" y="5546">│ │ │ │ └─┬ timers-ext@0.1.2 </tspan>
<tspan x="10" y="5562">│ │ │ │   └── next-tick@1.0.0 </tspan>
<tspan x="10" y="5578">│ │ │ ├─┬ figures@1.7.0 </tspan>
<tspan x="10" y="5594">│ │ │ │ └── object-assign@4.1.1 </tspan>
<tspan x="10" y="5610">│ │ │ ├── lodash@2.4.2 </tspan>
<tspan x="10" y="5626">│ │ │ ├── mute-stream@0.0.4 </tspan>
<tspan x="10" y="5642">│ │ │ ├─┬ readline2@0.1.1 </tspan>
<tspan x="10" y="5658">│ │ │ │ └─┬ strip-ansi@2.0.1 </tspan>
<tspan x="10" y="5674">│ │ │ │   └── ansi-regex@1.1.1 </tspan>
<tspan x="10" y="5690">│ │ │ └── rx@2.5.3 </tspan>
<tspan x="10" y="5706">│ │ ├── isbinaryfile@2.0.4 </tspan>
<tspan x="10" y="5722">│ │ ├── lodash@2.4.2 </tspan>
<tspan x="10" y="5738">│ │ ├── mime@1.3.4 </tspan>
<tspan x="10" y="5754">│ │ ├─┬ mkdirp@0.5.1 </tspan>
<tspan x="10" y="5770">│ │ │ └── minimist@0.0.8 </tspan>
<tspan x="10" y="5786">│ │ ├─┬ nopt@3.0.6 </tspan>
<tspan x="10" y="5802">│ │ │ └── abbrev@1.1.0 </tspan>
<tspan x="10" y="5818">│ │ ├─┬ rimraf@2.6.1 </tspan>
<tspan x="10" y="5834">│ │ │ └─┬ glob@7.1.1 </tspan>
<tspan x="10" y="5850">│ │ │   ├── fs.realpath@1.0.0 </tspan>
<tspan x="10" y="5866">│ │ │   ├── minimatch@3.0.3 </tspan>
<tspan x="10" y="5882">│ │ │   └── path-is-absolute@1.0.1 </tspan>
<tspan x="10" y="5898">│ │ ├── run-async@0.1.0 </tspan>
<tspan x="10" y="5914">│ │ ├── shelljs@0.3.0 </tspan>
<tspan x="10" y="5930">│ │ ├── text-table@0.2.0 </tspan>
<tspan x="10" y="5946">│ │ └── underscore.string@2.4.0 </tspan>
<tspan x="10" y="5962">│ └─┬ yosay@0.3.0 </tspan>
<tspan x="10" y="5978">│   ├── ansi-regex@0.2.1 </tspan>
<tspan x="10" y="5994">│   ├─┬ chalk@0.4.0 </tspan>
<tspan x="10" y="6010">│   │ ├── ansi-styles@1.0.0 </tspan>
<tspan x="10" y="6026">│   │ ├── has-color@0.1.7 </tspan>
<tspan x="10" y="6042">│   │ └── strip-ansi@0.1.1 </tspan>
<tspan x="10" y="6058">│   ├── minimist@0.2.0 </tspan>
<tspan x="10" y="6074">│   ├── pad-component@0.0.1 </tspan>
<tspan x="10" y="6090">│   ├─┬ string-length@0.1.2 </tspan>
<tspan x="10" y="6106">│   │ └─┬ strip-ansi@0.2.2 </tspan>
<tspan x="10" y="6122">│   │   └── ansi-regex@0.1.0 </tspan>
<tspan x="10" y="6138">│   ├─┬ strip-ansi@0.2.2 </tspan>
<tspan x="10" y="6154">│   │ └── ansi-regex@0.1.0 </tspan>
<tspan x="10" y="6170">│   ├─┬ taketalk@0.1.1 </tspan>
<tspan x="10" y="6186">│   │ ├── get-stdin@0.1.0 </tspan>
<tspan x="10" y="6202">│   │ └── minimist@0.1.0 </tspan>
<tspan x="10" y="6218">│   └── word-wrap@0.1.3 </tspan>
<tspan x="10" y="6234">└── UNMET PEER DEPENDENCY yo@&gt;=1.0.0</tspan>
</text>
</svg>
